<svg width="12" height="12" viewBox="0 0 12 12" fill="none" xmlns="http://www.w3.org/2000/svg">
<path d="M6 0L7.08704 1.94311L9 0.803848L8.96985 3.03015L11.1962 3L10.0569 4.91296L12 6L10.0569 7.08704L11.1962 9L8.96985 8.96985L9 11.1962L7.08704 10.0569L6 12L4.91296 10.0569L3 11.1962L3.03015 8.96985L0.803848 9L1.94311 7.08704L0 6L1.94311 4.91296L0.803848 3L3.03015 3.03015L3 0.803848L4.91296 1.94311L6 0Z" fill="#EB5F33"/>
<g clip-path="url(#clip0_9_38)">
<path d="M4.34561 6.23652L5.76298 7.6539L8.12527 4.81915" stroke="black" stroke-width="0.615911" stroke-linecap="square" stroke-linejoin="round"/>
</g>
<defs>
<clipPath id="clip0_9_38">
<rect width="5.66948" height="5.66948" fill="white" transform="translate(3.40137 3.40161)"/>
</clipPath>
</defs>
</svg>
